<?xml version="1.0" encoding="utf-8"?>


<!-- The icon can be used freely in both personal and commercial projects with no attribution required, but always appreciated. 
You may NOT sub-license, resell, rent, redistribute or otherwise transfer the icon without express written permission from iconmonstr.com -->


<!DOCTYPE svg PUBLIC "-//W3C//DTD SVG 1.1//EN" "http://www.w3.org/Graphics/SVG/1.1/DTD/svg11.dtd">

<svg version="1.1" xmlns="http://www.w3.org/2000/svg" xmlns:xlink="http://www.w3.org/1999/xlink" x="0px" y="0px"

	 width="512px" height="512px" viewBox="0 0 512 512" enable-background="new 0 0 512 512" xml:space="preserve">

<path id="eye-6-icon" d="M256.494,376.142c-83.277,0-158.968-57.287-206.494-126.949c47.956-67.222,123.636-113.334,206.494-113.334

	c83.032,0,158.965,45.31,205.506,112.907C417.871,322.311,342.328,376.142,256.494,376.142z M93.603,249.773

	c39.783,49.138,98.528,91.363,162.892,91.363c87.675,0,144.426-65.7,163.013-90.981c-39.54-46.52-97.718-79.292-163.013-79.292

	C171.68,170.863,113.877,226.687,93.603,249.773z M258.31,186.632c-38.312,0-69.368,31.057-69.368,69.368

	s31.057,69.368,69.368,69.368s69.369-31.057,69.369-69.368S296.621,186.632,258.31,186.632z M258.246,255.977

	c-9.792,9.791-25.666,9.791-35.458,0c-9.792-9.792-9.792-25.667,0-35.458c9.792-9.792,25.666-9.792,35.458,0

	C268.038,230.31,268.038,246.185,258.246,255.977z"/>

</svg>

