<?xml version="1.0" encoding="utf-8"?>

<!-- License Agreement at http://iconmonstr.com/license/ -->

<!DOCTYPE svg PUBLIC "-//W3C//DTD SVG 1.1//EN" "http://www.w3.org/Graphics/SVG/1.1/DTD/svg11.dtd">
<svg version="1.1" xmlns="http://www.w3.org/2000/svg" xmlns:xlink="http://www.w3.org/1999/xlink" x="0px" y="0px"
	 width="512px" height="512px" viewBox="0 0 512 512" enable-background="new 0 0 512 512" xml:space="preserve">
<path id="font-size-icon" d="M512,430.673v18.444h-74.265v-18.444h6.755c5.503,0,9.376-5.43,7.589-10.639l-10.847-31.604h-47.595
	l-12.271-33.934h48.98l-29.075-86.966l-24.608,73.61l-18.769-53.277l19.68-55.867h47.396l66.042,187.469
	c2.362,6.713,8.707,11.208,15.823,11.208H512L512,430.673z M384.76,416.308h9.187v32.81H255.323v-32.81h12.016
	c9.789,0,16.677-9.661,13.5-18.923l-17.393-50.868H130.5l-17.395,50.868c-3.179,9.262,3.711,18.923,13.5,18.923h12.016v32.81H0
	v-32.81h9.185c12.66,0,23.944-7.993,28.149-19.939L154.816,62.883h84.312l117.48,333.485
	C360.817,408.314,372.102,416.308,384.76,416.308z M151.766,280.795h90.412l-45.205-135.714L151.766,280.795z"/>
</svg>
