<?xml version="1.0" encoding="UTF-8" standalone="no"?>
<!-- The icon can be used freely in both personal and commercial projects with no attribution required, but always appreciated. 
You may NOT sub-license, resell, rent, redistribute or otherwise transfer the icon without express written permission from iconmonstr.com -->

<svg
   xmlns:dc="http://purl.org/dc/elements/1.1/"
   xmlns:cc="http://creativecommons.org/ns#"
   xmlns:rdf="http://www.w3.org/1999/02/22-rdf-syntax-ns#"
   xmlns:svg="http://www.w3.org/2000/svg"
   xmlns="http://www.w3.org/2000/svg"
   xmlns:sodipodi="http://sodipodi.sourceforge.net/DTD/sodipodi-0.dtd"
   xmlns:inkscape="http://www.inkscape.org/namespaces/inkscape"
   version="1.1"
   x="0px"
   y="0px"
   width="512px"
   height="512px"
   viewBox="0 0 512 512"
   enable-background="new 0 0 512 512"
   xml:space="preserve"
   id="svg2986"
   inkscape:version="0.48.5 r10040"
   sodipodi:docname="key.svg"><metadata
     id="metadata2993"><rdf:RDF><cc:Work
         rdf:about=""><dc:format>image/svg+xml</dc:format><dc:type
           rdf:resource="http://purl.org/dc/dcmitype/StillImage" /></cc:Work></rdf:RDF></metadata><defs
     id="defs2991" /><sodipodi:namedview
     pagecolor="#ffffff"
     bordercolor="#666666"
     borderopacity="1"
     objecttolerance="10"
     gridtolerance="10"
     guidetolerance="10"
     inkscape:pageopacity="0"
     inkscape:pageshadow="2"
     inkscape:window-width="1600"
     inkscape:window-height="878"
     id="namedview2989"
     showgrid="false"
     inkscape:zoom="1.6189323"
     inkscape:cx="255.99941"
     inkscape:cy="256.30882"
     inkscape:window-x="0"
     inkscape:window-y="0"
     inkscape:window-maximized="1"
     inkscape:current-layer="svg2986" /><path
     id="key-6-icon"
     d="M 96.566824,90.722 C 145.59882,41.691 219.56282,36.156 261.76982,78.365 c 42.205,42.205 36.674,116.17 -12.357,165.203 -49.033,49.031 -122.996,54.562 -165.200996,12.354 -42.205,-42.207 -36.678,-116.17 12.355,-165.2 z m 81.638996,140.547 c 8.367,-8.367 11.873,-19.978 10.75,-31.898 -0.861,-9.131 6.822,-16.94 16.08,-16.069 11.916,1.121 23.523,-2.386 31.889,-10.75 16.402,-16.402 14.123,-45.274 -5.092,-64.488 -19.213,-19.213 -48.086,-21.492 -64.488,-5.09 -8.363,8.363 -11.869,19.971 -10.748,31.888 0.867,9.23 -6.877,16.948 -16.07,16.081 -11.92,-1.124 -23.531,2.381 -31.898,10.748 -16.401996,16.402 -14.122996,45.274 5.092,64.488 19.212,19.212 48.085,21.491 64.485,5.09 z m 178.23013,187.80918 -21.99013,22.60582 20.317,20.316 35.764,-35.766 22.709,22.711 42.916,-42.918 -175.86375,-174.01067 c -11.178,16.905 -25.771,31.707 -42.656,43.178 l 93.67377,91.82069 -28.34971,26.49863 20.861,20.859 14.57584,-13.33645 z"
     inkscape:connector-curvature="0"
     sodipodi:nodetypes="cccscccsccsccsccccccccccccccc"
     style="fill:#ffdd55" /></svg>