<?xml version="1.0" encoding="utf-8"?>

<!-- License Agreement at http://iconmonstr.com/license/ -->

<!DOCTYPE svg PUBLIC "-//W3C//DTD SVG 1.1//EN" "http://www.w3.org/Graphics/SVG/1.1/DTD/svg11.dtd">
<svg version="1.1" xmlns="http://www.w3.org/2000/svg" xmlns:xlink="http://www.w3.org/1999/xlink" x="0px" y="0px"
	 width="512px" height="512px" viewBox="0 0 512 512" style="enable-background:new 0 0 512 512;" xml:space="preserve">
<path id="script-3-icon" d="M217.289,411.465c31.539,40.643-29.48,69.861-59.46,35.059c-20.399-23.682-15.95-62.234,23.56-80.451
	C191.069,378.266,205.399,396.143,217.289,411.465z M199.74,200.215l143.584-82.098c9.042-45.018-36.599-81.852-78.713-63.131
	l-0.021-0.043l-120.207,61.525C181.732,125.69,204.659,162.242,199.74,200.215z M397.109,347.072
	c-2.805,1.84,10.13-6.322-141.555,89.326c0.32-14.629-4.745-30.09-14.847-43.107c-5.77-7.436-114.969-146.443-136.005-172.893
	c-47.882-60.206,26.854-103.215,57.756-57.57c13.717,20.257,9.062,52.225-10.853,65.221l18.592,23.238L326.5,161.891
	c20.832,25.372,69.183,84.27,85.109,103.777C431.174,289.631,424.669,329,397.109,347.072z M212.943,305.965l131.34-77.552
	l-14.879-18.12L198.652,287.5L212.943,305.965z M376.606,268.09l-14.88-18.12l-131.951,77.911l14.29,18.465L376.606,268.09z"/>
</svg>
